# xmcd
#
# Track frame offsets:
#	150
#	8878
#	19727
#	41499
#	55016
#	76052
#	87797
#	95921
#	106890
#	120356
#	131303
#	145909
#	152469
#
# Disc length: 2104 seconds
#
# Revision: 0
# Processed by: cddbd v1.5.2PL0 Copyright (c) Steve Scherf et al.
# Submitted via: EasyCDDAExtractor 16.0.6.1
#
DISCID=9008360d
DTITLE=Χριστογιαννόπουλος Τάσης - Μπολιβάρ, ελλ.-Ν. Μαμαγκάκης
DYEAR=2006
DGENRE=Έντεχνη
TTITLE0=Χριστογιαννόπουλος Τάσης-Μαμαγκάκης Νίκος - Πρόλογος
TTITLE1=Χριστογιαννόπουλος Τάσης-Μαμαγκάκης Νίκος - Μπολιβάρ κράζω τ' όνομά σο
TTITLE1=υ
TTITLE2=Άνευ ερμηνευτού - Ελεγεία για φλάουτο
TTITLE3=Χριστογιαννόπουλος Τάσης-Μαμαγκάκης Νίκος - Αν στα νησιά των κοραλλιών
TTITLE4=Άνευ ερμηνευτού - Ελεγεία για βιολοντσέλο
TTITLE5=Χριστογιαννόπουλος Τάσης-Μαμαγκάκης Νίκος - Αν η νύχτα αργεί να περάσε
TTITLE5=ι
TTITLE6=Μαμαγκάκης Νίκος - Ιντερμέδιο
TTITLE7=Χριστογιαννόπουλος Τάσης-Μαμαγκάκης Νίκος - Σαν μιλάς,  φοβεροί σεισμο
TTITLE7=ί
TTITLE8=Άνευ ερμηνευτού - Ελεγεία για κιθάρα
TTITLE9=Χριστογιαννόπουλος Τάσης-χορωδία-Μαμαγκάκης Ν. - Corazon
TTITLE10=Άνευ ερμηνευτού - Ελεγεία για λαούτο
TTITLE11=Χριστογιαννόπουλος Τάσης - Lbertad
TTITLE12=Χριστογιαννόπουλος Τάσης-Μαμαγκάκης Νίκος - Επίλογος
EXTD=
EXTT0=
EXTT1=
EXTT2=
EXTT3=
EXTT4=
EXTT5=
EXTT6=
EXTT7=
EXTT8=
EXTT9=
EXTT10=
EXTT11=
EXTT12=
PLAYORDER=
